<svg version="1" xmlns="http://www.w3.org/2000/svg" width="1744" height="1744" viewBox="0 0 1308.000000 1308.000000"><path d="M577 164.8c-1.9.1-6.4.7-10 1.3-3.6.6-7.4 1.2-8.5 1.4-2 .2-4.4 1-8 2.5-7.1 3-10.1 4.5-10.7 5.4-.4.6-.8.7-.8.2 0-1.9-12.7 9.5-17.3 15.6-9.5 12.6-12.2 23.3-13.1 52.7-.3 7.9-.7 14.6-1 14.8-.3.3-.1 1.6.5 3 .6 1.6.5 3.1-.1 4.4-.8 1.3-.7 2.5 0 3.9.7 1.3.7 2 .1 2-.7 0-.7.8-.1 2.4.5 1.3.6 2.7.2 3-1 1.1-.8 7.6.3 7.6.7 0 .7.3 0 .8-.6.4-1 3.3-1 6.4v5.8H479v34.5c0 31.2.3 35.7 2.3 34.3.1-.1 1.2.4 2.4 1 1.2.7 2.4.9 2.6.5.4-.6 15.6-.9 20.3-.4.6 0 1 1.1 1 2.3-.1 1.3.2 2.9.7 3.5.6.8.6 1.3-.1 1.3-.9 0-1 3.9-.2 6 .2.3.1.9 0 1.5-.8 3.1-.4 15.5.5 15.5.6 0 .5.3-.1.8-.9.6-1.1 4.3-.4 6.2.1.3.1.9 0 1.5-.8 3.1-.4 15.5.5 15.5.6 0 .5.3-.1.8-.9.6-1.1 4.3-.4 6.2.1.3.1.9 0 1.5-.8 3.1-.4 15.5.5 15.5.6 0 .5.3-.1.8-.9.6-1.1 4.3-.4 6.2.1.3.1.9 0 1.5-.8 3.1-.4 15.5.5 15.5.6 0 .5.3-.1.8-.9.6-1.1 4.3-.4 6.2.1.3.1.9 0 1.5-.8 3.1-.4 15.5.5 15.5.6 0 .5.3-.1.8-.9.6-1.1 4.3-.4 6.2.1.3.1.9 0 1.5-.8 3.1-.4 15.5.5 15.5.6 0 .5.3-.1.8-.9.6-1.1 4.3-.4 6.2.1.3.1.9 0 1.5-.8 3.1-.4 15.5.5 15.5.6 0 .5.3-.1.8-.9.6-1.1 4.3-.4 6.2.1.3.1.9 0 1.5-.8 3.1-.4 15.5.5 15.5.6 0 .5.3-.1.8-.9.6-1.1 4.3-.4 6.2.1.3.1.9 0 1.5-.8 3.1-.4 15.5.5 15.5.6 0 .5.3-.1.8-.9.6-1.1 4.3-.4 6.2.1.3.1.9 0 1.5-.7 3.2-.4 12.5.5 12.5.7 0 .7.3 0 .8-1.1.8-1.3 3.2-.3 4.7.4.6 14.3 1 39 .9 21-.1 38.8-.2 39.3-.3.7-.1 1-40.2 1-124.2 0-68.2.2-124.4.5-124.7.9-1.2 3-1.2 3-.1 0 .8.6.7 1.7-.2 2-1.7 1.7-1.7 3.6-.1.8.7 1.8.9 2 .5.7-1.1 18.8-1 20.5.1.6.4 1.2.3 1.2-.1 0-1 11.1-.9 12.8.1.6.3 1.3.2 1.7-.3.3-.5 1.4-.8 2.5-.6 1.8.3 1.9-.7 1.9-34.6 0-32.1-.2-34.9-1.7-34.9-.9-.1-11.3 0-23 0l-21.3.1.2-23.8c.2-28.1 1.1-32.4 7.5-36.4 4.4-2.7 6.5-3.1 16.2-3.4 5.4-.2 10.9.4 15.5 1.5 4 1 8.4 2 9.8 2.4l2.5.5V208c-.1-19.2-.5-31.2-1.1-31.8-1.7-1.5-21.9-7.4-30-8.8-1.6-.3-4.1-.7-5.5-1-6.4-1.3-24.2-2.2-31-1.6zM324.8 292.5c-.2.2-2.3.6-4.8.9-6.8 1-7.4 1.1-8.7 1.9-.7.5-1.3.6-1.3.3 0-.9-10.2 2.4-19 6.2-14.2 6-34.2 18.9-44.2 28.4-1 1-2.2 1.8-2.8 1.8-.6 0-1-6.3-1-17v-17h-79.8v79c0 43.4-.3 79.4-.7 80-.3.5-.3 1 .2 1 .9 0 .8 12.2-.1 14.5-.3.8-.2 1.5.2 1.5s.6 32.2.4 71.5c-.1 39.3.1 71.6.5 71.6 2.1.3 76.9.5 77.9.2.8-.3 1.2-19.7 1.3-69.6.1-89 .6-108.9 3.1-118.7.6-2.5 1.3-5.2 1.4-6 1.7-8.9 10.1-25.9 16.1-32.7 4.1-4.7 9.5-10.1 9.5-9.7 0 .3 1.8-.8 4-2.6 3.6-2.8 13.5-7.5 18.5-8.7 1.1-.2 3.9-.6 6.1-.7 2.3-.2 4.6-.6 5-.8.5-.3 1.8-.4 2.9-.2 1.1.2 4.5.6 7.5.8 3 .2 6.6.9 8 1.4 1.4.5 2.8 1 3.2 1.1 3.1.7 6.8 2.5 6.8 3.2 0 .5.6.9 1.3.9 1.8 0 10.7 8.2 10.7 9.8 0 .7.5 1 1 .7.6-.3 1 0 1 .9 0 .8.3 1.6.8 1.8 1 .5 5.5 9.6 5.5 11.3 0 .8.4 1.5.8 1.5.3 0 1 2.1 1.4 4.7.5 2.7 1 5.5 1.2 6.3 1 4 2 12.5 2.9 25.5.3 4.4.7 46 .9 92.5.1 46.5.3 85.2.4 86 .1 1.3 4.9 1.5 39.4 1.4 21.5-.1 39.4-.2 39.7-.3.9-.2.4-222.7-.4-229.4-.8-6-1-7.5-2-11.7-.3-1.4-.8-3.8-1-5.4-1.1-6.5-9.3-27.8-11.5-29.6-.3-.3-1.3-1.7-2.1-3.2-3-5.3-10.6-13.7-17.4-19.3-2.1-1.7-4.3-3.5-4.9-4-2.4-2.1-10.8-7.5-11.7-7.5-.4 0-1-.4-1.2-.8-.9-2.3-24-11-31-11.7-2.1-.2-4.3-.7-4.9-1.1-1-.6-28.5-1.5-29.1-.9zM823.8 292.5c-.2.2-3.2.6-6.8.9-7.6.7-9 1-20.5 3.6-16 3.5-36 12.5-52 23.4-3.3 2.2-6.3 4-6.7 3.8-.5-.1-.8.2-.8.7 0 .4-2.6 2.8-5.7 5.3-16.6 13.1-34.4 34.5-42.8 51.4-1.7 3.2-3.3 6.1-3.8 6.2-.4.2-.5.8-.1 1.3.3.5 0 .9-.5.9-.6 0-1 .3-.9.7.1.5-.4 2.4-1.1 4.3-.8 1.9-1.4 3.7-1.5 4-.1.3-.4.9-.8 1.5-1.5 2.4-6.2 21.9-7.8 32.4-1.7 11.1-2.1 41.8-.6 48.1.4 1.4.8 4.3 1.1 6.5.4 3.2 2.1 10.3 5.8 24 .2.5.8 2 1.5 3.2.7 1.2 1.2 2.8 1.2 3.5 0 1.8 7.6 17.4 10.8 22.3 1.5 2.2 3.3 5.2 4.1 6.7.8 1.5 2.1 3.6 3 4.5.9 1 3.5 4.3 5.7 7.3 10.5 14 29.4 30.8 46.4 41 11.7 7.1 32.3 15.8 41.3 17.4 1.5.2 3.5.7 4.5 1 .9.3 3.1.8 4.7 1.1 1.7.3 3.9.8 5 1 6.9 1.4 14.2 1.8 31 1.8 10.5 0 20.4-.3 22-.6 1.7-.4 5.2-.9 7.9-1.2 2.8-.4 5.3-.8 5.7-1 .4-.3 2.4-.7 4.5-1.1 2.2-.3 4.7-1 5.7-1.5.9-.5 1.7-.7 1.7-.5 0 .3 1.9-.2 4.3-1 2.3-.9 4.9-1.7 5.7-1.9 5.1-1.1 24-10 31.8-14.9 2.3-1.4 4.4-2.6 4.7-2.6.2 0 1.3-.6 2.2-1.4 1-.8 5-3.8 8.8-6.7 8.5-6.3 22.4-20.1 29.2-28.9 8.2-10.5 19.3-29 17.6-29-.4 0-.3-.4.2-.8 1.3-.8 6-11.4 7-15.5.4-1.5 1.1-2.7 1.7-2.7.5 0 .7-.4.4-.9-.3-.5.1-2.8.9-5.2.9-2.3 2.4-8.6 3.5-13.8 5-24.9 4.5-52.5-1.6-74.1-.8-3-1.7-6.5-2-7.7-.2-1.2-.9-3.5-1.6-5-.6-1.6-1.2-3-1.3-3.3-.3-1-1.7-4.5-2.5-6.5-3.9-9.7-15.5-29.5-22.5-38.5-3.9-4.9-25.3-25.8-28.4-27.6-1.7-1-3.1-2.2-3.1-2.6 0-.4-.7-.8-1.5-.8s-1.5-.5-1.5-1c0-.6-.7-1-1.5-1s-1.5-.3-1.5-.8c0-.4-1-1.2-2.3-1.8-6.7-3.4-8.7-4.6-8.7-5.5 0-.5-.8-.9-1.9-.9-1 0-2.4-.7-3.1-1.5-.7-.8-1.6-1.5-2.1-1.5s-3.7-1.3-7.1-2.9c-11.5-5.2-19.6-8.1-31.3-10.9-7.5-1.8-10.7-2.5-19.5-3.8-3.7-.5-33.7-1.3-34.2-.9zm23.8 76c14.5 1.1 26.4 4.7 37.9 11.7 9.4 5.6 19.7 15.1 25.9 23.8 3.7 5.3 9.3 17.1 11.1 23.7.9 3.2 1.9 6.5 2.2 7.3 2.4 6.6 1.9 36.8-.7 46-.5 1.6-.6 3-.2 3 .3 0 .1.5-.5 1.1-.6.6-.9 1.8-.6 2.5.3.8 0 1.4-.6 1.4s-1.1.8-1.1 1.8c0 2-7.2 16.3-10.5 20.8-7.2 9.9-21.1 21.7-32 27.1-16.6 8.3-41.3 10.9-62 6.7-5.2-1.1-5.4-1.1-6-1.4-.3-.1-.9-.4-1.5-.5-.5-.1-1.1-.3-1.2-.5-.2-.1-1.1-.3-2-.5-2.4-.4-14-6.4-16-8.3-1-.8-1.8-1.2-1.8-.8 0 .4-.7.1-1.4-.6-.8-.7-3.9-3.3-6.9-5.8-5.5-4.6-15.9-17-16.5-19.6-.2-.8-.7-1.4-1-1.4-.4 0-1.3-1.5-2.1-3.3-.7-1.7-2-4.8-2.9-6.7-.9-1.9-1.7-4-1.8-4.5-.2-.6-1-3.5-1.9-6.5-2.2-7.7-2.9-14.7-3-27.5 0-13.6.8-20 3.5-29 2.2-7.2 7.9-19.7 9.3-20.3.4-.2.5-.8.1-1.3-.3-.5-.1-.9.4-.9s2.1-1.7 3.5-3.8c3.5-5.3 12-13.6 19.2-18.7 8.2-5.8 21.2-11.7 27.7-12.5.4-.1 2.2-.6 4-1.1 1.8-.5 6.9-1.2 11.3-1.5 4.4-.3 8.2-.7 8.4-.9.2-.3.7-.3 1.1 0 .3.2 4.2.7 8.6 1zM50.8 297.8l-35.5.2.1 159.8.1 159.7H54c21.2.1 39.2-.1 40-.3 1.3-.3 1.5-18.5 1.3-157.5-.1-86.5-.2-158.2-.2-159.3-.1-2.9-1-3-44.3-2.6zM179.8 699.6c-.3.2-4.2.6-8.7.9-4.6.3-8.7.8-9.2 1.1-.5.2-2.5.7-4.6 1-8.1 1-18.1 3.5-27.8 7.1-3.8 1.4-7.4 2.6-8 2.7-.5.2-2.3.8-4 1.5-1.6.7-3.2 1.3-3.5 1.4-.3 0-4.3 2.1-9 4.5-4.7 2.5-9.5 5-10.7 5.6-1.3.6-2.3 1.4-2.3 1.8 0 .5-.5.8-1.1.8-.6 0-2.8 1.3-4.9 3-2.1 1.6-4.1 3-4.5 3-1.3 0-17.2 14-23.5 20.7-12.5 13.3-19.6 23.6-28.4 40.8-4.4 8.5-11.1 25.3-12.1 30.5-.1.3-.5 2.5-1 5-1.1 5.4-1.2 5.9-1.5 6.2-.1.2-.3 1.4-.5 2.8-.1 1.4-.5 3.8-.9 5.5-1.3 6.9-2.7 36.1-1.7 37.1.2.2.5 3 .7 6.1.5 6.5 1.2 13.8 1.4 13.8.1 0 .3.9.5 2 .6 3.4 1.8 9 2.1 10 .2.5.6 2.6 1 4.5.3 1.9 1.1 4.1 1.6 4.7.6.7.8 1.3.4 1.3-.3 0 .1 1.7 1 3.7.9 2.1 1.7 4.5 1.9 5.3.2.8.4 1.6.5 1.7.2.2.3.6.4 1 .1.5 1.7 3.9 3.4 7.7 1.8 3.8 3.2 7.3 3.2 7.7 0 .5.4.9.8.9s1.3 1.2 1.9 2.7c2.8 6.4 13.9 22.5 20.2 29.2 2.3 2.4 4.1 4.7 4.1 5 0 .9 14.6 14.9 19 18.1 1.8 1.4 3.8 2.9 4.5 3.5.6.5 1.8 1.4 2.6 2 .9.5 3.4 2.2 5.5 3.6 12.4 8.3 37.6 18.7 51.9 21.4 9.3 1.8 18.6 3.4 23.2 4 16.6 2 46 2 57.3 0 1.4-.2 4.3-.7 6.5-1 3.7-.5 5.1-.7 11-2 1.1-.3 2.9-.7 4.1-.9 1.1-.2 4.4-1.1 7.2-2 2.9-.8 5.2-1.2 5.2-.8 0 .4.4.2.8-.3.4-.6 3.9-2.1 7.7-3.4 3.9-1.3 7.2-2.8 7.5-3.2.3-.5 1.5-1 2.6-1.2 1.2-.1 3.3-1.1 4.8-2 1.4-1 2.6-1.5 2.6-1.2 0 .3 2-.8 4.4-2.5 2.5-1.6 4.8-3 5.2-3 .4 0 2.2-1.1 4-2.5 1.8-1.4 3.5-2.5 3.8-2.5.6 0 3.6-2.4 6.1-4.8.8-.6 1.6-1.2 1.8-1.2 1.6 0 19.3-17.3 25.5-24.8 1.9-2.4 4.1-4.1 4.8-3.8.7.3 5.2-4.6 10.5-11.2 5.2-6.4 10.1-12.6 11.1-13.7.9-1.1 7.9-9.7 15.4-19 7.5-9.4 14.9-18.6 16.4-20.5 1.5-1.9 3.7-4.6 4.8-6 2.3-2.8 3.1-2.5 3.8 1.6 1.5 8.9 6.8 24.1 12.2 35.4 3 6.3 11.6 20.8 14.4 24.5 8.8 11.2 12.4 15.4 20.1 23 9.7 9.5 22.9 20.5 24.6 20.5.6 0 1.1.5 1.1 1 0 .6.8 1.4 1.8 1.8.9.4 4.9 2.6 8.9 4.9 3.9 2.4 7.6 4.3 8.2 4.3.6 0 1.1.5 1.1 1.2 0 .6.3.9.6.5.4-.3 2.9.6 5.7 2.1 2.9 1.4 5.6 2.7 6.2 2.8.5.1 5.1 1.6 10 3.2 5 1.7 10.1 3.3 11.5 3.6 1.4.3 3.6.7 5 1 8.8 1.9 12.8 2.5 23 3.2 14 1 35 .5 42.6-1 1.2-.2 3.7-.7 5.5-1 5.2-.8 20.4-4.3 20.4-4.6 0-.1.9-.3 2.1-.5 1.2-.3 4.2-1.4 6.8-2.5 2.6-1.1 5.2-1.8 5.7-1.4.5.3.9.2.9-.3 0-.9 9.1-4.9 10.3-4.5.4.1.7-.3.7-.8 0-.6.9-1 2-1s2-.5 2-1c0-.6.4-1 1-1 1.9 0 17.9-10 26.5-16.8 7.7-5.9 13.3-11.2 25.3-23.9 1.2-1.3 2.2-2.8 2.2-3.3 0-.4.3-1 .8-1.2 4.4-1.9 27.2-41.7 26.3-46.1 0-.4.4-.7.9-.7s.9-.3.8-.8c-.2-.9 1.3-6.3 2.1-7.7.3-.6.6-1.5.8-2 .1-.6 1.3-5.7 2.7-11.5 1.4-5.8 2.9-13.4 3.3-17 1-8.8 1-34 0-42-1.3-10.8-1.4-11.3-2.7-16-.7-2.5-1.4-5.4-1.6-6.6-.2-1.2-1-4-1.9-6.3-.8-2.3-1.5-4.5-1.6-4.9-.1-.4-.5-1.7-1-3s-.9-2.5-.9-2.6c0-.2-.8-2.1-1.7-4.2-.9-2.2-1.7-4.1-1.8-4.4 0-.3-.7-1.6-1.5-3s-1.4-2.7-1.5-3c-.2-2.6-13.4-23.5-19.8-31.5-4.7-5.8-21.7-22.7-27.1-26.9-6.7-5.2-11.6-8.6-11.6-8 0 .3-.7-.1-1.5-.8-3.4-3.1-5.7-4.4-20.6-11.9-19-9.5-48.6-17.9-61.9-17.5-2.2.1-4-.2-4-.5 0-.4-7.3-.5-16.2-.3-16.2.4-19.1.6-25.8 1.9-1.9.4-4.4.8-5.5 1-15.5 2.3-37.8 11-55 21.3-10.6 6.4-12.9 8-16 10.9-.8.7-1.8 1.3-2.4 1.3-.6 0-1.1.4-1.1.8s-2.1 2.4-4.8 4.4c-4.9 3.8-13.2 12-22.4 22.2-7.7 8.6-27.1 29.4-39.3 42.2-2.7 2.9-9.3 9.9-14.6 15.6-5.3 5.6-11.6 12.3-13.9 14.8-2.3 2.5-9.5 10.1-15.9 16.9-6.4 6.8-13.4 14.3-15.6 16.6-2.2 2.4-9.2 9.8-15.5 16.6-33 35.4-57 59.6-63.5 64.1-9.3 6.4-22.1 12.6-29.5 14.3-.8.1-3.3.8-5.5 1.3-13.9 3.7-43 3.7-57 .1-11.6-3-26.2-9.6-31.1-14-1.1-1.1-2.4-1.9-2.8-1.9-1.5 0-15.4-14.8-19.3-20.6-6.6-9.8-11.3-21.1-13.9-33.4-2.4-11-2.3-35.6.1-45.8.3-1.2.7-3.2 1-4.4.9-4.1 3.8-12.3 4.6-13.3.5-.5.9-1.7.9-2.7 0-1 .5-1.8 1-1.8.6 0 1-.7 1-1.6 0-.9.9-2.7 2-4.1 1.1-1.4 2-3.2 2-3.9 0-.8.3-1.4.8-1.4.4 0 1.8-1.7 3.2-3.8 3.5-5.2 14.5-16.1 20.9-20.6 9.8-6.9 25.7-13.8 35.1-15.2 1.9-.3 4.1-.7 4.8-.9 4.7-1.6 25.5-2.2 36.7-1.1 23.9 2.3 41.3 10.9 60.6 29.9 7.4 7.2 6.1 7 14.9 2 6-3.4 14.2-7.9 21.5-11.8 3.9-2.1 7.5-4.1 8-4.5.6-.4 3.7-2.2 7-4 3.3-1.8 8-4.5 10.5-5.8 2.5-1.4 6.2-3.5 8.3-4.6 4-2.2 4.4-2.8 2.4-4.8-.7-.7-1.8-2-2.3-2.9-3.9-6.8-22.4-25.8-32.4-33.4-3.6-2.7-6.8-5.4-7.2-6-.4-.5-.8-.6-.8-.2 0 .4-1.5-.2-3.2-1.5-5.1-3.6-6.6-4.4-17.3-9.6-20.7-10.1-38.1-15.1-62.5-17.9-5.1-.6-36.8-1.2-37.2-.7zM580 775c3 .2 6 .6 6.5.9.6.3 1.9.6 3 .6 7.7.3 27.9 8.2 33.6 13.1.8.8 1.9 1.4 2.2 1.4 1.1 0 5.6 4 12.7 11.1 7.9 7.9 14.1 17 17.9 26.1.6 1.6 1.5 3.8 2.1 5 3.7 8.8 6.2 23.7 6.1 37.3 0 12-.8 18.7-3.3 29-.7 2.7-1.1 5.3-1 5.7.1.5-.3.8-.8.8s-.9.3-.8.7c.1.5-.4 2.4-1.1 4.3-.8 1.9-1.5 3.7-1.5 4-.3.8-4.9 9.3-6.1 11.1-4.1 6.4-7.1 10.2-12.4 15.7-3.4 3.5-6.1 6.1-6.1 5.7 0-.3-1.5.8-3.2 2.4-1.8 1.7-4.8 3.8-6.8 4.8-1.9 1-3.7 2.1-4 2.4-1 1-10.5 5.2-16.4 7-10.9 3.5-16.9 4.3-30.6 4.3-20-.1-32.2-3-47-11.1-22.2-12.3-38.3-34.3-44.4-60.4-2.8-12.2-2.8-38.5 0-50.8 2.3-9.8 9.8-27 13.7-31.1.9-1.1 1.7-2.4 1.7-3 0-.5.5-1 1-1 .6 0 1-.5 1-1.1 0-1.1 15.5-16.9 16.6-16.9.4 0 1.7-.9 2.8-1.9 6.8-6.4 28.5-14.5 41.9-15.7 4-.3 7.3-.7 7.4-.8.2-.2 7.4 0 15.3.4zM899.7 703.6c-.2.3-2.9.7-5.8.9-14.8 1-30.1 8.5-41.9 20.5-4.7 4.7-10 11.5-10 12.8 0 .6-.4 1.2-.9 1.4-.4.1-2 2.8-3.4 5.8l-2.7 5.5-.1-4.5c0-2.5-.1-11.6-.1-20.3 0-11-.3-15.7-1.2-15.9-.6 0-15.8-.2-33.8-.2-21.9-.1-32.9.2-33.1.9-.3.9-.1 316.2.2 317.6.2.8 77.8.5 78.6-.3.7-.6 1.1-136.7.5-139.3-.1-.6-.2-1.2-.1-1.5.1-.3.4-9.3.7-20 .2-10.7.6-21.3.8-23.5.6-6.7 1.8-15.7 2.3-17.9.2-1.2.6-3.5.7-5.1.2-1.7.9-5 1.6-7.5.6-2.5 1.4-5.4 1.6-6.5.8-4.7 8.7-18.5 13.1-23.2 4.9-5.2 12.6-9.9 14.3-8.8.6.3 1 .1 1-.6 0-2.6 15.4.5 23.4 4.8 2.3 1.3 3 1.3 3.6.2.5-.7.6-1.7.4-2.1-.3-.4-.1-.8.5-.8s.8-.7.5-1.5c-.4-.8-.1-1.5.5-1.5.7 0 1.1-.6.9-1.3-.1-.6.3-2.2 1-3.4.7-1.2 1.1-2.6 1.1-3-.1-.4.1-1.5.4-2.3 1-2.4 9.7-28 11.4-33.5.8-2.8 2-5.6 2.5-6.3.6-.6.8-1.2.4-1.2-.3 0 .3-2.3 1.3-5l1.9-5-2.6-1.4c-5.1-2.6-15.7-5.6-21.7-6.2-3.2-.3-6.2-.7-6.6-.9-.3-.3-.9-.2-1.2.1zM1136.7 703.6c-.1.1-2.9.5-6.2.8-14.6 1.6-27.2 4.9-39.5 10.4-1.9.8-3.7 1.4-3.9 1.3-.2-.2-.7.1-1 .6-.3.5-2.2 1.7-4.1 2.6-1.9 1-4.8 2.7-6.5 3.7-1.6 1.1-3.7 2.3-4.5 2.7-1.5.6-9.1 6.2-10 7.4-.3.3-1.3 1-2.2 1.5-.9.5-4.2 3.3-7.2 6.2-5.6 5.3-5.6 5.4-5.7 2.5V709h-80.5v435.6h39.8c26.7 0 39.8-.4 39.9-1.1.1-.5.2-34.6.3-75.8 0-41.1.5-74.7.9-74.8.5 0 2.8 1.7 5.1 3.8 2.3 2.1 5.9 5.1 8 6.8l6.5 5.2c4.3 3.4 18.2 11.6 24.1 14.2 3 1.3 6.4 2.8 7.5 3.3 1.2.5 2.8 1 3.8 1.2.9.1 2 .5 2.3.9.4.4 1.9.7 3.4.7s3 .3 3.4.7c.4.5 1.1.8 1.4.9.9 0 9 1.5 11.7 2.1 6.3 1.3 21 1.7 32 .9 10.4-.7 27.7-4 33.5-6.3.8-.4 1.8-.7 2.3-.8.4-.2 1-.4 1.5-.5.4-.1 1-.2 1.5-.1.4 0 .7-.3.7-.7 0-.5.6-.9 1.3-.9 1.8 0 15.1-6.3 15.8-7.5.3-.5.8-.8 1.1-.6.7.5 12.8-7.4 20.8-13.6 13.9-10.9 30.2-29 38.2-42.5 4.8-8 13.7-26.8 14.4-30.1.1-.8 1-3.5 1.9-6 1.7-4.5 2.7-8.4 2.8-10.8 0-.6.4-1.2.9-1.2s.7-.4.3-.9c-.3-.6-.1-2.9.5-5.3 1.2-4.8 1.8-8.9 2.4-16.3.3-2.8.5-5 .6-5 .7 0 .4-29.4-.2-30.8-.6-1.1-.5-1.7.3-1.7s.8-.4.2-1.3c-.6-.6-1-1.9-1.1-2.7 0-3.4-1.3-13.6-1.9-15.5-.3-1.1-.7-3.1-.9-4.5-.1-1.4-.3-2.5-.4-2.5-.2 0-1.1-3.7-1.4-6.6-.2-1.4-.9-3.5-1.5-4.7-.6-1.2-.9-2.2-.5-2.2.3 0 .1-.7-.6-1.5s-1-1.5-.7-1.5c.2 0-.2-1.7-1-3.8-.7-2-1.7-4.6-2-5.7-2.2-6.7-15.3-30.4-19-34.3-.7-.8-1.7-2.1-2.2-3.1-2.8-5.1-20-22.4-29.7-29.7-14.5-11-35.6-21.6-47.2-23.7-.9-.2-3.5-.9-5.7-1.5-7.9-2.1-18-3.3-32.8-3.6-5.9-.1-10.8-.1-11 0zm14.3 77.9c7.8 1.8 19.5 6.5 24.2 9.7 1.4 1 2.9 1.8 3.3 1.8.4 0 1.8 1.1 3 2.4 1.3 1.4 2.5 2.3 2.7 2.1.4-.4 12.1 11.4 15.1 15.3.9 1.2 1.7 2.7 1.7 3.2 0 .6.4 1 .8 1 1.1 0 9.3 16.4 9.5 19 .1 1.1.4 2 .8 2s.9 1.5 1.3 3.2c1.2 6.8 1.9 11.4 2 14 0 1.6.3 2.8.6 2.8s.5 5.2.5 11.5-.2 11.5-.5 11.5c-.4 0-.6 1-.6 2.2-.1 3.2-1 7.5-2.7 13-.8 2.6-1.2 4.9-.9 5.2.3.4-.1.6-.8.6-.7 0-1.1.3-.8.6.6.6-2.2 7.1-5.8 13.3-3.1 5.4-11.1 15.3-16.2 19.9-5.6 5.1-20.2 15-22.8 15.5-1.1.2-3 .9-4.4 1.4-1.4.6-2.8 1.1-3.2 1.2-.4.1-2.6.8-4.8 1.6-2.2.8-4 1.2-4 .9 0-.3-.6-.2-1.2.2-3 1.9-25.7 2.4-35.8.9-3-.4-6.3-.8-7.2-.9-1 0-1.8-.4-1.8-.8s-1.7-1-3.7-1.4c-2.1-.4-4.2-.9-4.8-1.3-.5-.3-1.2-.6-1.5-.7-5.4-1.1-19.6-10.4-27.5-18.1-5.6-5.4-13.3-15.9-16.7-22.8-3.9-7.8-7.7-21.9-8.3-30.7-.2-2.9-.5-5.3-.6-5.3-.6 0-.3-10.4.3-11.7.4-.9.4-1.9 0-2.2-1.2-.7 2.1-18.6 4.7-26 8.1-22.8 26.3-41.6 48.6-50.2 2.8-1 5.2-1.9 5.5-2 .3 0 2.3-.6 4.5-1.2s6.5-1.4 9.5-1.8c3-.3 5.7-.8 5.8-.9 1.1-1 25.9.6 32.2 2z"/></svg>