<svg xmlns="http://www.w3.org/2000/svg" viewBox="0 0 339.531 83.3"><defs><style>.a,.b{fill:#0074ff;}.b{fill-rule:evenodd;}</style></defs><g transform="translate(-304.4 -2026)"><g transform="translate(304.4 2026)"><path class="a" d="M0,0H11.725V46.747H0Z" transform="translate(0 19.548)"/><path class="b" d="M417.6,2171.47h11.725V2153.05a52.1,52.1,0,0,1,.5-9.334,12.529,12.529,0,0,1,3.424-6.465,8.341,8.341,0,0,1,5.93-2.333,7.057,7.057,0,0,1,4.457,1.416,7.566,7.566,0,0,1,2.544,4.112c.5,1.8.746,5.451.746,10.922v20.122h11.687v-30.661q0-8-4.017-12.108a15.767,15.767,0,0,0-11.629-4.82,16.916,16.916,0,0,0-6.522,1.32,27.535,27.535,0,0,0-7.115,4.667v-5.126H417.6Z" transform="translate(-395.948 -2105.174)"/><path class="b" d="M660.1,2055.762h4.189v36.552h11.725v-36.552h7.536v-10.195h-6.733l.038-5.834a3.821,3.821,0,0,1,.65-2.659,4.105,4.105,0,0,1,2.888-.861,14.7,14.7,0,0,1,3.978.727v-9.219a24.893,24.893,0,0,0-8.435-1.722q-5.193,0-8.034,2.3a8.993,8.993,0,0,0-3.309,6.216c-.172,1.148-.287,4.82-.306,11.036H660.1Z" transform="translate(-592.064 -2026)"/><path class="b" d="M840.389,2138.409a14.059,14.059,0,0,1-.057,19.013,12.689,12.689,0,0,1-9.315,3.711,12.51,12.51,0,0,1-9.258-3.672,12.993,12.993,0,0,1-3.653-9.583,13.19,13.19,0,0,1,22.283-9.468Zm-25.9-8.435a24.085,24.085,0,0,0-.937,35.137,23.718,23.718,0,0,0,17.291,7.058,25.249,25.249,0,0,0,12.586-3.213,24.19,24.19,0,0,0,12.337-21.059,23.325,23.325,0,0,0-3.29-12.07,24.079,24.079,0,0,0-9.143-8.856,25.315,25.315,0,0,0-12.528-3.271A24.155,24.155,0,0,0,814.491,2129.974Z" transform="translate(-710.38 -2105.012)"/><path class="b" d="M1673.119,2171.389h11.725v-18.764l-.038-2.257q0-9.726,1.74-13.045c1.167-2.219,2.582-3.328,4.266-3.328a7.312,7.312,0,0,1,3.156,1.014l3.4-10.023a9.569,9.569,0,0,0-10.119.555,12.066,12.066,0,0,0-4.112,5.107v-5.987H1673.1v46.729Z" transform="translate(-1411.303 -2105.094)"/><path class="b" d="M1858.967,2138.366a13.988,13.988,0,0,1-.077,18.936,12.478,12.478,0,0,1-9.181,3.73,12.716,12.716,0,0,1-9.334-3.673,12.974,12.974,0,0,1-3.692-9.64,12.651,12.651,0,0,1,3.692-9.449,13.628,13.628,0,0,1,18.592.1ZM1825.8,2124.48v63.752h11.706v-22.475a22.858,22.858,0,0,0,6.924,4.839,19.322,19.322,0,0,0,7.536,1.473,21,21,0,0,0,15.723-6.924,23.986,23.986,0,0,0,6.637-17.234q0-10.644-6.427-17.482a20.567,20.567,0,0,0-15.589-6.828,19.85,19.85,0,0,0-7.919,1.587,21.857,21.857,0,0,0-6.886,4.725v-5.451H1825.8Z" transform="translate(-1534.796 -2104.932)"/><path class="b" d="M1133.975,2123.35a27.734,27.734,0,0,0-12.682-2.85,28.556,28.556,0,0,0-13.829,3.347,24.706,24.706,0,0,0-9.621,9.239,25.6,25.6,0,0,0,3.6,30.451q7.029,7.516,19.453,7.517,13.8,0,21.365-10.042l-9.315-6.5q-4.39,5.509-12.318,5.509a14.068,14.068,0,0,1-10.348-3.9,13.635,13.635,0,0,1-3.921-10.1,13.992,13.992,0,0,1,4.131-10.425,14.829,14.829,0,0,1,10.826-4.055,15.824,15.824,0,0,1,6.408,1.205,16.88,16.88,0,0,1,5.528,4.3l9.927-5.547A23.912,23.912,0,0,0,1133.975,2123.35Z" transform="translate(-943.293 -2102.425)"/><path class="b" d="M1423.773,2135.477a15.386,15.386,0,0,1-.057,20.543,13.425,13.425,0,0,1-9.908,4.017,13.2,13.2,0,0,1-9.851-3.959,14.178,14.178,0,0,1-3.883-10.367,13.872,13.872,0,0,1,3.921-10.176,14.3,14.3,0,0,1,19.778-.057Zm-27.237-8.436a25.127,25.127,0,0,0-.956,36.667,24.724,24.724,0,0,0,18.056,7.345,26.4,26.4,0,0,0,13.121-3.328,25.25,25.25,0,0,0,12.892-21.977,24.405,24.405,0,0,0-3.443-12.605,24.905,24.905,0,0,0-9.545-9.239,26.375,26.375,0,0,0-13.064-3.4A24.992,24.992,0,0,0,1396.535,2127.042Z" transform="translate(-1180.816 -2102.425)"/><path class="b" d="M1293.7,2191.333l.555-.727,23.852-25.306-5.471,21.06-9.219,10.96Z" transform="translate(-1104.472 -2138.656)"/></g></g></svg>