<?xml version="1.0" encoding="utf-8"?>
<!-- Generator: Adobe Illustrator 22.0.1, SVG Export Plug-In . SVG Version: 6.00 Build 0)  -->
<svg version="1.1" id="Camada_1" xmlns="http://www.w3.org/2000/svg" xmlns:xlink="http://www.w3.org/1999/xlink" x="0px" y="0px"
	 viewBox="0 0 654 498.7" style="enable-background:new 0 0 654 498.7;" xml:space="preserve">
<style type="text/css">
	.st0{fill:#007AFF;}
</style>
<g>
	<g>
		<rect x="7.6" y="71" class="st0" width="40" height="159.8"/>
		<path class="st0" d="M81.5,230.8h39.9v-62.9c0-16.4,0.5-27,1.6-32c2.2-9.4,6.1-16.7,11.8-22c5.6-5.3,12.3-8,20.2-8
			c6,0,11.1,1.6,15.2,4.8c4.1,3.3,7,8,8.6,14.1c1.7,6.1,2.5,18.5,2.5,37.3v68.7h40V126c0-18.2-4.7-32.1-13.7-41.3
			c-10.9-11-24.1-16.6-39.6-16.6c-7.6,0-15,1.5-22.2,4.6c-7.3,2.9-15.4,8.3-24.3,15.9V71H81.6L81.5,230.8L81.5,230.8z"/>
		<path class="st0" d="M239.6,105.9h14.3v124.9h39.9V105.9h25.6V71h-22.9l0.1-20c0-4.6,0.8-7.5,2.3-9.1c2-2,5.3-2.9,9.8-2.9
			c3.5,0,8.1,0.9,13.6,2.5V10.1c-10.7-3.9-20.3-5.9-28.8-5.9c-11.8,0-20.9,2.6-27.4,7.9c-6.4,5.2-10.3,12.2-11.2,21.2
			c-0.7,3.9-1,16.5-1.1,37.7h-14.3L239.6,105.9L239.6,105.9z"/>
		<path class="st0" d="M450.9,118.4c8.4,8.3,12.5,19.1,12.5,32.3c0,13.3-4.3,24.2-12.8,32.6c-8.4,8.4-19,12.6-31.7,12.6
			c-12.8,0-23.2-4.1-31.5-12.5c-8.3-8.3-12.4-19.2-12.4-32.7c0-13.1,4.1-23.8,12.5-32.2s18.9-12.5,31.6-12.5
			C432,105.9,442.6,110.1,450.9,118.4z M362.6,89.6C344.2,106,335,126.5,335,151.1c0,22.9,8.1,42.4,24.3,58.4
			c16.2,16.1,36,24.1,59,24.1c15.6,0,29.9-3.6,43-10.9c13-7.3,23.2-17.3,30.8-30.3c7.4-12.9,11.2-26.7,11.2-41.7
			c0-14.7-3.7-28.5-11.2-41.2c-7.4-12.8-17.9-22.8-31.2-30.2s-27.6-11.2-42.7-11.2C397.2,68.1,378.8,75.3,362.6,89.6z"/>
		<path class="st0" d="M383.2,436.5h39.9v-64.2l-0.1-7.7c0-22.1,2-37,5.9-44.5c4-7.6,8.8-11.4,14.6-11.4c2.8,0,6.4,1.2,10.8,3.5
			l11.6-34.2c-5.3-2.7-10.5-4-15.4-4c-6.9,0-13.3,2-19.1,5.9c-5.9,4-10.5,9.8-14,17.4v-20.5h-34.2L383.2,436.5L383.2,436.5z"/>
		<path class="st0" d="M595.8,324.1c8.3,8.4,12.5,19.1,12.5,32.2c0,13.2-4.3,24-12.8,32.5s-18.9,12.8-31.3,12.8
			c-12.8,0-23.4-4.1-31.8-12.5c-8.4-8.3-12.6-19.3-12.6-32.8c0-13.3,4.3-24,12.6-32.3c8.4-8.2,19.1-12.3,31.8-12.3
			C576.9,311.6,587.5,315.7,595.8,324.1z M482.7,276.7v217.8h40v-76.8c7.7,7.7,15.7,13.2,23.6,16.6c8,3.3,16.6,5,25.7,5
			c20.6,0,38.5-7.9,53.7-23.6c15-15.8,22.6-35.4,22.6-58.9c0-24.3-7.3-44.2-21.9-59.8c-14.6-15.5-32.3-23.2-53.1-23.2
			c-9.7,0-18.6,1.7-27,5.3c-8.4,3.6-16.2,8.9-23.4,16.1v-18.6L482.7,276.7L482.7,276.7z"/>
		<path class="st0" d="M140.7,281.5c-12.9-6.5-27.3-9.8-43.3-9.8c-17.3,0-33,3.8-47.1,11.4c-14,7.6-25,18.2-32.8,31.6
			C9.6,328,5.8,342.6,5.8,358.5c0,23,8,43.1,24,60.1c15.9,17.1,38.1,25.7,66.3,25.7c31.3,0,55.6-11.4,72.8-34.3l-31.7-22.2
			c-9.9,12.6-24,18.9-42,18.9c-14.6,0-26.3-4.4-35.2-13.3S46.6,373,46.6,358.9c0-14.5,4.7-26.4,14.1-35.7s21.7-13.8,37-13.8
			c8.3,0,15.6,1.3,21.8,4c6.1,2.8,12.4,7.7,18.9,14.7l33.8-18.9C164,297.2,153.5,287.9,140.7,281.5z"/>
		<path class="st0" d="M318.9,322.8c8.8,8.9,13.3,20.6,13.3,35c0,14.3-4.6,26.1-13.5,35.2c-9.1,9.1-20.3,13.6-33.8,13.6
			s-24.8-4.5-33.6-13.5c-8.8-9.1-13.3-20.8-13.3-35.3c0-14.2,4.5-25.7,13.4-34.8c8.9-9.2,20.2-13.6,33.6-13.6
			C298.7,309.4,310.1,313.9,318.9,322.8z M226,294c-19.2,17.1-28.8,38.5-28.8,64.1c0,24,8.5,44.3,25.5,61.1
			c17,16.8,37.5,25.2,61.5,25.2c16.4,0,31.3-3.8,44.8-11.4c13.5-7.5,24.2-18.1,32.1-31.6C369,388,373,373.5,373,358
			s-3.9-29.8-11.8-43.1c-7.7-13.3-18.6-23.8-32.5-31.5c-14-7.7-28.8-11.7-44.6-11.7C262.3,271.7,242.9,279.1,226,294z"/>
		<polygon class="st0" points="134.7,391.1 218,302.3 199.3,374.3 168.8,412.2 		"/>
	</g>
</g>
</svg>
